<?xml version="1.0" encoding="utf-8"?>
<!-- Generator: Adobe Illustrator 22.1.0, SVG Export Plug-In . SVG Version: 6.00 Build 0)  -->
<svg version="1.1" id="Layer_1" xmlns="http://www.w3.org/2000/svg" xmlns:xlink="http://www.w3.org/1999/xlink" x="0px" y="0px"
	 viewBox="0 0 200 200" style="enable-background:new 0 0 200 200;" xml:space="preserve">
<style type="text/css">
	.st0{fill:none;stroke:#231F20;stroke-width:2;stroke-miterlimit:10;}
	.st1{fill:#FFFFFF;stroke:#231F20;stroke-width:2;stroke-linecap:round;stroke-linejoin:round;stroke-miterlimit:10;}
	.st2{fill:#E13292;stroke:#231F20;stroke-width:2;stroke-miterlimit:10;}
	.st3{fill:#E13292;stroke:#231F20;stroke-width:2;stroke-linecap:round;stroke-miterlimit:10;}
	.st4{fill:#231F20;}
</style>
<path class="st0" d="M88.6,112.4H32.5c-4.7,0-8.5-3.8-8.5-8.5V53.4c0-4.7,3.8-8.5,8.5-8.5h56.1c4.7,0,8.5,3.8,8.5,8.5v50.5
	C97.1,108.6,93.3,112.4,88.6,112.4z"/>
<path class="st1" d="M164.1,117.1c8.8-5.7,14.5-14.6,14.5-24.5c0-17.2-17-31.2-37.9-31.2s-37.9,14-37.9,31.2s17,31.2,37.9,31.2
	c1.4,0,2.7-0.1,4-0.2c16,15.4,25.9,12.6,25.9,12.6l-5.3-9.2C163.1,122.4,163.3,119.2,164.1,117.1z"/>
<path class="st1" d="M135.2,117.9c0-19.6-19.9-35.5-44.5-35.5s-44.5,15.9-44.5,35.5c0,13.6,9.6,25.4,23.6,31.3
	c0.5,1.9,0.5,4.6-1.4,8.2l-5.6,8.4c0,0,10.9,2.6,28.4-12.5C115.4,153.2,135.2,137.4,135.2,117.9z"/>
<path class="st2" d="M100.3,102.1c-4.4,0-8.1,3-9.7,7.2c-1.6-4.2-5.3-7.2-9.7-7.2c-5.8,0-10.5,5.2-10.5,11.7c0,2.8,0,10.2,14.5,20.6
	l5.7,4.1l5.7-4.1c14.5-10.5,14.5-17.9,14.5-20.6C110.8,107.3,106.1,102.1,100.3,102.1z"/>
<line class="st3" x1="38.2" y1="62.2" x2="82.9" y2="62.2"/>
<line class="st3" x1="38.2" y1="74.1" x2="61.4" y2="74.1"/>
<g>
	<path class="st4" d="M137.6,86.3v-3.5h3.7v3.5H137.6z M137.6,97.3v-3.5h3.7v3.5H137.6z"/>
	<path class="st4" d="M162.9,90c0,1.1-0.1,2.2-0.4,3.2c-0.3,1-0.7,1.9-1.2,2.7c-0.5,0.8-1.3,1.5-2.2,2.1c-0.9,0.6-1.9,1.1-3.1,1.3
		c-1.3,0.3-2.9,0.5-4.7,0.5h-4.5V80.2h4.4c1.7,0,3.3,0.2,4.8,0.5c1.2,0.3,2.2,0.7,3,1.3c0.9,0.6,1.6,1.3,2.2,2.1
		c0.6,0.8,1,1.7,1.3,2.7C162.8,87.8,162.9,88.8,162.9,90z M160.3,90c0-1.9-0.4-3.4-1.2-4.6c-0.8-1.2-2-2-3.5-2.4
		c-1.2-0.3-2.7-0.5-4.3-0.5h-1.7v15.2h1.7c1.9,0,3.4-0.1,4.3-0.4c1.6-0.5,2.7-1.3,3.5-2.5C159.9,93.4,160.3,91.9,160.3,90z"/>
</g>
</svg>
