<?xml version="1.0" encoding="utf-8"?>
<!-- Generator: Adobe Illustrator 24.3.0, SVG Export Plug-In . SVG Version: 6.00 Build 0)  -->
<svg version="1.1" id="Layer_1" xmlns="http://www.w3.org/2000/svg" xmlns:xlink="http://www.w3.org/1999/xlink" x="0px" y="0px"
	 viewBox="0 0 200 200" style="enable-background:new 0 0 200 200;" xml:space="preserve">
<style type="text/css">
	.st0{fill:#D1335D;}
	.st1{fill:none;stroke:#000000;stroke-width:2;stroke-miterlimit:10;}
	.st2{fill:#FFFFFF;}
</style>
<g>
	<path class="st0" d="M99.79,152.71c0,0,2.25-0.25,4.79-2.06c10.11-7.2,35.31-27.58,42.93-44.56c1.71-4.11,2.54-8.26,2.54-12.59
		c0-8.26-2.83-15.88-7.97-21.45c-5.2-5.64-12.34-8.75-20.1-8.75c-5.8,0-11.11,1.83-15.79,5.45c-2.36,1.83-4.5,4.06-6.38,6.67
		c-1.88-2.61-4.02-4.84-6.38-6.67c-4.68-3.62-9.99-5.45-15.79-5.45c-7.76,0-14.9,3.11-20.1,8.75c-5.14,5.58-7.97,13.19-7.97,21.45
		c0,4.35,0.83,8.5,2.55,12.62c0,0,3.87,6.06,11.01,14.41C71.3,130.13,83.83,142.76,99.79,152.71"/>
	<line class="st1" x1="130.26" y1="102.46" x2="130.3" y2="102.49"/>
	<path class="st1" d="M120.09,120.07"/>
	<line class="st1" x1="79.97" y1="120.07" x2="85.06" y2="115.18"/>
	<g>
		<path class="st2" d="M52.28,106.16l9.85-9.47l4.42-0.94l2.71,2.08l0.91,3.12L58,114.32l18.48-18.06h3.42l2.71,2.22
			c0,0,0.37,1.64,0.37,2.14c0,0.5-2.01,4.41-2.01,4.41l-2.12,1.71l-2.05,1.65l-13.16,13.63l15.17-14.93l3.3,0.51l3.2,1.7l0.62,3.49
			l-0.56,2.78l-4.19,3.34l0.93,1.04l2.07,0.07l1.76,1.74c0,0,0.68,0.76,0.76,0.98c0.08,0.23,0.37,3.01,0.37,3.01l-1.24,2.8
			c0,0-2.74,2.61-2.85,2.72c-0.11,0.11-5.04,5.1-5.04,5.1S55.02,114.86,52.28,106.16z"/>
	</g>
	<g>
		<path class="st2" d="M148.04,106.51l-9.85-9.47l-4.53-1.59l-3.12,2.49l-0.39,3.36l12.17,13.37l-18.48-18.06h-3.42l-2.71,2.22
			c0,0-0.37,1.64-0.37,2.14s2.01,4.41,2.01,4.41l2.12,1.71l2.05,1.65l13.16,13.63l-15.17-14.93l-3.75-0.51l-2.76,2.72l-0.62,3.49
			l0.56,2.78l4.19,3.34l-0.94,0.54l-2.02-0.63l-2.27,2c0,0-0.2,1.69-0.28,1.92c-0.08,0.23-0.37,3.01-0.37,3.01l1.24,2.8
			c0,0,2.74,2.61,2.85,2.72s5.04,5.1,5.04,5.1S145.31,115.21,148.04,106.51z"/>
	</g>
	<path class="st1" d="M130.31,102.51c-1.15-1.72-0.91-4.17,0.69-5.85c1.83-1.91,4.75-2.08,6.52-0.38l10.19,9.8
		c1.71-4.11,2.54-8.26,2.54-12.59c0-8.26-2.83-15.88-7.97-21.45c-5.2-5.64-12.34-8.75-20.1-8.75c-5.8,0-11.11,1.83-15.79,5.45
		c-2.36,1.83-4.5,4.06-6.38,6.67c-1.88-2.61-4.02-4.84-6.38-6.67c-4.68-3.62-9.99-5.45-15.79-5.45c-7.76,0-14.9,3.11-20.1,8.75
		c-5.14,5.58-7.97,13.19-7.97,21.45c0,4.35,0.83,8.5,2.55,12.62l10.23-9.84c1.77-1.7,4.69-1.53,6.52,0.38
		c1.6,1.67,1.85,4.1,0.71,5.83l-12.12,12.2"/>
	<path class="st1" d="M69.75,102.51l0.05-0.05l5.64-5.43c1.77-1.7,4.68-1.53,6.52,0.38c1.83,1.91,1.89,4.83,0.12,6.53L66.73,118.7
		l-3.42,3.29"/>
	<line class="st1" x1="70.57" y1="129.11" x2="79.97" y2="120.07"/>
	<path class="st1" d="M136.72,121.97l-3.4-3.27l-15.35-14.76c-1.77-1.7-1.71-4.62,0.12-6.53c1.83-1.91,4.75-2.08,6.52-0.38
		l5.64,5.43l13.01,12.01"/>
	<path class="st1" d="M122.09,107.94c-1.77-1.7-4.67-1.68-6.5,0.23s-2.36,5.31-0.59,7.01l5.09,4.89"/>
	<line class="st1" x1="120.09" y1="120.07" x2="129.87" y2="129.07"/>
	<path class="st1" d="M77.87,108.01c1.77-1.7,5.23-1.26,7.06,0.64s1.89,4.83,0.12,6.53l-5.09,4.89c1.78-1.37,4.4-1.15,6.11,0.63v0
		c1.83,1.91,1.91,5.75,0.14,7.45l-1.83,1.69c-0.35,0.33-2.84,2.89-6.07,6.12c2.05,1.77,4.15,3.57,6.34,5.43l0.02,0.02
		c3.45,2.94,7.37,6.28,11.43,9.83c1.08,0.94,2.45,1.46,3.89,1.46c1.43,0,2.81-0.52,3.88-1.46c4.07-3.56,7.99-6.9,11.45-9.85
		c2.2-1.87,4.31-3.68,6.37-5.45c-3.21-3.22-5.69-5.77-6.04-6.09l-1.83-1.69c-1.77-1.7-1.69-5.54,0.14-7.45v0
		c1.72-1.79,4.34-2.01,6.11-0.63l-5.09-4.89"/>
	<circle class="st1" cx="100" cy="100" r="76.18"/>
</g>
</svg>
