<?xml version="1.0" encoding="utf-8"?>
<!-- Generator: Adobe Illustrator 22.1.0, SVG Export Plug-In . SVG Version: 6.00 Build 0)  -->
<svg version="1.1" id="Layer_1" xmlns="http://www.w3.org/2000/svg" xmlns:xlink="http://www.w3.org/1999/xlink" x="0px" y="0px"
	 viewBox="0 0 200 200" style="enable-background:new 0 0 200 200;" xml:space="preserve">
<style type="text/css">
	.st0{fill:#E8D5AE;}
	.st1{fill:none;stroke:#231F20;stroke-width:2;stroke-linecap:round;stroke-linejoin:round;stroke-miterlimit:10;}
	.st2{fill:#8E3F97;stroke:#231F20;stroke-width:2;stroke-linecap:round;stroke-linejoin:round;stroke-miterlimit:10;}
	.st3{fill:#E9E1BF;}
	.st4{fill:#00A465;stroke:#231F20;stroke-width:2;stroke-miterlimit:10;}
	.st5{fill:none;stroke:#231F20;stroke-width:2;stroke-linecap:round;stroke-miterlimit:10;}
</style>
<g>
	<path class="st0" d="M121.9,146.3c4.7-6.2,4.9-16.3,4.9-16.3l1.5-19.3c0-5-4.4-5.4-4.4-5.4c-3.7-0.8-5.7,2.5-5.7,2.5
		c0.1-1.3-0.3-5.9-4.4-6.4c-0.2,0-0.3,0-0.4,0c-3.8-0.2-5.2,2.6-5.2,2.6l2-21.6c-0.3-4.9-4.8-4.8-4.8-4.8c-5.4-0.5-5.7,3.9-5.7,3.9
		l-3.7,33.6l-9.1-32.8c-1.8-4.7-6.2-3.2-6.2-3.2c-4.6,1.1-3.3,6.8-3.3,6.8l9.3,37c-1.9-0.5-4.1,1.6-4.1,1.6
		c-3.2,1.2-2.1,7.2-2.1,7.2l2.5,9.1c3.5,10.4,7.9,13.4,7.9,13.4h25.1L121.9,146.3z"/>
	<path class="st1" d="M34.6,170.9l0.3-29.4c0,0-9.2-7.9-10.1-19.1l-1-16.8c0,0-0.3-5.2,4-5.8c0,0,4.9-0.8,5.8,3.6
		c0,0-3.4-12.7,3.7-13.4c0,0,4.5-0.9,6,2.5l-1.9-20.6c0,0-0.4-5.4,4.6-5.9c0,0,5.3-0.5,5.8,5l3.6,33.2l9.2-32.9c0,0,1.6-6.1,7-4.3
		c0,0,4.7,1.2,2.9,7l-9.2,36.6c0,0,7.3,2.5,5.1,12.2l-0.7,2.8c0,0-3.1,10.8-8.1,17.2v28.3"/>
	<line class="st1" x1="33.5" y1="102.6" x2="34.2" y2="106.5"/>
	<line class="st1" x1="43.2" y1="91.4" x2="44.8" y2="104.6"/>
	<line class="st1" x1="65.7" y1="108.8" x2="63.5" y2="117.2"/>
	<ellipse class="st2" cx="39.9" cy="148.8" rx="7" ry="6.5"/>
	<line class="st1" x1="45.9" y1="145.2" x2="61.5" y2="145.2"/>
	<line class="st1" x1="44.8" y1="153.9" x2="55.6" y2="153.9"/>
	<path class="st1" d="M121.9,146.3c4.7-6.2,4.9-16.3,4.9-16.3l1.5-19.3c0-5-4.4-5.4-4.4-5.4c-3.7-0.8-5.7,2.5-5.7,2.5
		c0.1-1.3-0.3-5.9-4.4-6.4c-0.2,0-0.3,0-0.4,0c-3.8-0.2-5.2,2.6-5.2,2.6l1.9-20.8c0.3-5-4.8-5.6-4.8-5.6c-5.4-0.5-5.8,4.7-5.8,4.7
		l-3.7,32.8L87,83.1c-1.9-5.5-6.5-4-6.5-4c-4.8,1.4-3.3,6.8-3.3,6.8l8.9,36.9c-7.6,1.5-5.9,8.9-5.9,8.9l0.4,1.7
		c3.7,16.3,10,20.7,10,20.7"/>
	<rect x="87.4" y="154.1" class="st1" width="31.6" height="10.7"/>
	<line class="st1" x1="89.9" y1="170.9" x2="89.9" y2="164.9"/>
	<line class="st1" x1="116.5" y1="170.9" x2="116.5" y2="164.9"/>
	<line class="st1" x1="88" y1="130.4" x2="83.8" y2="112.8"/>
	<line class="st1" x1="106.6" y1="116.2" x2="108.2" y2="102.6"/>
	<line class="st1" x1="117.1" y1="118.7" x2="118.2" y2="107.8"/>
	<path class="st1" d="M143.9,170.9v-29.3c0,0-9-9.1-9.9-19.9l-1.8-22c0,0-0.3-4.3,4.5-4.8c0,0,4.1-0.6,6,3.5c0,0-1.4-7.1,4.2-8
		c0,0,4.2-0.6,5.9,2.4l-2.1-20c0,0-0.8-5.7,4.8-6.1c0,0,5.3-0.5,5.9,4.8l3.1,32.2l9.1-32.4c0,0,1.3-4.6,6.5-3.4c0,0,5,1.2,3.8,6.3
		l-9.4,37.4c0,0,6.5-0.4,5.2,8.6l-1,6.3c0,0-1.3,10.2-8,16.5l0,11.1v17"/>
	<line class="st1" x1="143.7" y1="107.3" x2="142.3" y2="96"/>
	<line class="st1" x1="153.9" y1="104.8" x2="152.8" y2="92.7"/>
	<line class="st1" x1="172.9" y1="117.9" x2="175.6" y2="107.1"/>
	<path class="st3" d="M90.6,154.1"/>
	<polygon class="st4" points="100.3,55.9 97,66.1 105.7,59.8 114.4,66.1 111.1,55.9 119.8,49.6 109.1,49.6 105.7,39.3 102.4,49.6 
		91.6,49.6 	"/>
	<line class="st5" x1="105.7" y1="34.3" x2="105.7" y2="24.7"/>
	<line class="st5" x1="116.6" y1="42.7" x2="123.3" y2="36"/>
	<line class="st5" x1="95.8" y1="42.7" x2="89.1" y2="36"/>
</g>
</svg>
