<?xml version="1.0" encoding="utf-8"?>
<!-- Generator: Adobe Illustrator 24.3.0, SVG Export Plug-In . SVG Version: 6.00 Build 0)  -->
<svg version="1.1" id="Layer_1" xmlns="http://www.w3.org/2000/svg" xmlns:xlink="http://www.w3.org/1999/xlink" x="0px" y="0px"
	 viewBox="0 0 200 200" style="enable-background:new 0 0 200 200;" xml:space="preserve">
<style type="text/css">
	.st0{fill:#BB26DB;stroke:#000000;stroke-width:2;stroke-miterlimit:10;}
	.st1{fill:#BB26DB;}
	.st2{fill:none;stroke:#000000;stroke-width:2;stroke-miterlimit:10;}
	.st3{fill:#FFFFFF;stroke:#000000;stroke-width:2;stroke-miterlimit:10;}
	.st4{fill:#FCB813;stroke:#000000;stroke-width:1.3;stroke-miterlimit:10;}
	.st5{fill:#009640;stroke:#000000;stroke-width:1.3;stroke-miterlimit:10;}
</style>
<g>
	<path class="st0" d="M90.12,32.82c12.13,2.27,21.7,28.34,21.7,60.17h34.22C146.03,61.16,121.38,35.1,90.12,32.82z"/>
	<path class="st1" d="M82.64,93h-23.1c0,0,0.26,60.35,25.23,60.35c11.34,0,18.19-8.82,22.84-25.52c4.55-16.36,4.2-34.84,4.2-34.84
		H82.64z"/>
	<path class="st2" d="M82.96,32.64c-0.58,0-1.15,0.07-1.72,0.18c1.47-0.11,2.94-0.18,4.44-0.18H82.96z"/>
	<path class="st2" d="M85.68,153.35c-1.49,0-2.97-0.07-4.44-0.18c0.57,0.11,1.14,0.18,1.72,0.18H85.68z"/>
	<path class="st2" d="M89.99,153.2c-1.42,0.1-2.86,0.15-4.31,0.15h2.72C88.93,153.35,89.46,153.29,89.99,153.2z"/>
	<path class="st2" d="M88.4,32.64h-2.72c1.49,0,2.97,0.07,4.44,0.18C89.55,32.72,88.97,32.64,88.4,32.64z"/>
	<g>
		<path class="st2" d="M81.24,153.17c-12.13-2.27-21.7-28.34-21.7-60.18H25.32C25.32,124.84,49.98,150.9,81.24,153.17z"/>
	</g>
	<path class="st2" d="M81.24,153.17c-12.13-2.27-21.7-28.34-21.7-60.18H25.32C25.32,124.84,49.98,150.9,81.24,153.17z"/>
	<path class="st2" d="M109.6,118.64c1.42-7.78,2.21-16.47,2.21-25.64h34.22c0,6.25-1.17,12.69-2.93,18.36"/>
	<path class="st2" d="M117.13,144.77c-7.66,4.42-17.7,7.72-27.02,8.4c6.5-1.22,12.27-9.27,16.22-21.39"/>
	<path class="st0" d="M81.24,32.82C49.98,35.1,25.32,61.16,25.32,93h34.22C59.55,61.16,69.11,35.1,81.24,32.82z"/>
	<path class="st2" d="M90.12,32.82c-1.47-0.11-2.94-0.18-4.44-0.18c-1.49,0-2.97,0.07-4.44,0.18C69.11,35.1,59.55,61.16,59.55,93
		h52.27C111.81,61.16,102.24,35.1,90.12,32.82z"/>
	<circle class="st2" cx="133.8" cy="116.36" r="10.56"/>
	<path class="st3" d="M173.07,111.91c-2.14-2.14-5.61-2.14-7.75,0l-22.13,22.13h-18.8l-22.13-22.13c-2.14-2.14-5.61-2.14-7.74,0
		c-2.14,2.14-2.14,5.61,0,7.75l22.61,22.61v25.1h33.32v-25.09l22.62-22.62C175.21,117.51,175.21,114.05,173.07,111.91z"/>
	<polyline class="st4" points="141.52,151.47 137.52,151.47 133.52,151.47 135.52,148 137.52,144.54 139.03,147.15 	"/>
	<polygon class="st5" points="140.52,151.47 136.52,151.47 138.52,148 140.52,144.54 142.52,148 144.52,151.47 	"/>
</g>
</svg>
