<?xml version="1.0" encoding="utf-8"?>
<!-- Generator: Adobe Illustrator 24.3.0, SVG Export Plug-In . SVG Version: 6.00 Build 0)  -->
<svg version="1.1" id="Layer_1" xmlns="http://www.w3.org/2000/svg" xmlns:xlink="http://www.w3.org/1999/xlink" x="0px" y="0px"
	 viewBox="0 0 200 200" style="enable-background:new 0 0 200 200;" xml:space="preserve">
<style type="text/css">
	.st0{fill:none;stroke:#000000;stroke-width:2;stroke-miterlimit:10;}
	.st1{fill:#4FA1E0;stroke:#000000;stroke-width:2;stroke-miterlimit:10;}
</style>
<g>
	<polyline class="st0" points="112.37,74.5 125.39,81.23 128.06,66.82 	"/>
	<g>
		<line class="st0" x1="73.34" y1="114.74" x2="68.66" y2="127.69"/>
		<polyline class="st0" points="85.39,122.66 73.64,113.9 73.34,114.74 		"/>
	</g>
	<path class="st0" d="M115.13,68.36"/>
	<g>
		<circle class="st0" cx="65.14" cy="75.54" r="5.47"/>
		<path class="st1" d="M80.12,108.1v-11.5c0-5.16-4.89-9.34-10.93-9.34h-8.1c-6.04,0-10.93,4.18-10.93,9.34v11.5"/>
		<line class="st0" x1="56.91" y1="96.36" x2="56.91" y2="108.09"/>
		<line class="st0" x1="73.42" y1="96.36" x2="73.42" y2="108.09"/>
	</g>
	<g>
		<circle class="st0" cx="137.8" cy="94.52" r="5.47"/>
		<path class="st0" d="M152.78,127.14v-11.5c0-5.16-4.89-9.34-10.93-9.34h-8.1c-6.04,0-10.93,4.18-10.93,9.34v11.5"/>
		<line class="st0" x1="129.57" y1="115.41" x2="129.57" y2="127.14"/>
		<line class="st0" x1="146.08" y1="115.41" x2="146.08" y2="127.14"/>
	</g>
	<path class="st0" d="M100.21,148.79c-8.35,4.88-18.07,7.68-28.45,7.68c-31.18,0-56.46-25.28-56.46-56.46s25.28-56.46,56.46-56.46
		c24.23,0,44.9,15.26,52.91,36.7"/>
	<path class="st0" d="M101.32,50.35c8-4.35,17.17-6.81,26.91-6.81c31.18,0,56.46,25.28,56.46,56.46s-25.28,56.46-56.46,56.46
		c-26.13,0-48.11-17.75-54.55-41.85"/>
</g>
</svg>
