<?xml version="1.0" encoding="utf-8"?>
<!-- Generator: Adobe Illustrator 24.3.0, SVG Export Plug-In . SVG Version: 6.00 Build 0)  -->
<svg version="1.1" id="Layer_1" xmlns="http://www.w3.org/2000/svg" xmlns:xlink="http://www.w3.org/1999/xlink" x="0px" y="0px"
	 viewBox="0 0 110 110" style="enable-background:new 0 0 110 110;" xml:space="preserve">
<style type="text/css">
	.st0{fill:#15AD60;stroke:#000000;stroke-width:2;stroke-miterlimit:10;}
	.st1{fill:none;stroke:#000000;stroke-width:2;stroke-linecap:round;stroke-linejoin:round;stroke-miterlimit:10;}
</style>
<g>
	<path class="st0" d="M49.1,95.2c0,3.17,2.57,5.74,5.74,5.74s5.74-2.57,5.74-5.74"/>
	<path class="st1" d="M65.39,76.72l-0.02-5.69c8.53-3.97,14.45-12.6,14.45-22.63c0-13.8-11.18-24.98-24.98-24.98
		c-13.8,0-24.98,11.18-24.98,24.98c0,10.03,5.92,18.65,14.45,22.63l-0.02,5.69"/>
	<path class="st0" d="M65.14,89.04h-20.6c-1.26,0-2.27-1.02-2.27-2.27v-1.61c0-1.26,1.02-2.27,2.27-2.27h20.6
		c1.26,0,2.27,1.02,2.27,2.27v1.61C67.41,88.02,66.4,89.04,65.14,89.04z"/>
	<path class="st0" d="M65.14,95.2h-20.6c-1.26,0-2.27-1.02-2.27-2.27v-1.61c0-1.26,1.02-2.27,2.27-2.27h20.6
		c1.26,0,2.27,1.02,2.27,2.27v1.61C67.41,94.18,66.4,95.2,65.14,95.2z"/>
	<g>
		<polyline class="st0" points="51.33,76.72 51.33,67.94 48,64.84 48,51.95 61.67,51.95 61.67,64.84 58.35,67.94 58.35,76.72 		"/>
	</g>
	<line class="st0" x1="43.71" y1="51.95" x2="65.97" y2="51.95"/>
	<line class="st1" x1="54.84" y1="16.4" x2="54.84" y2="9.06"/>
	<line class="st1" x1="78.44" y1="26.09" x2="83.63" y2="20.9"/>
	<line class="st1" x1="88.19" y1="49.55" x2="95.52" y2="49.55"/>
	<line class="st1" x1="21.81" y1="49.63" x2="14.48" y2="49.63"/>
	<line class="st1" x1="31.5" y1="26.15" x2="26.32" y2="20.96"/>
	<line class="st0" x1="48" y1="47.33" x2="48" y2="51.52"/>
	<line class="st0" x1="61.67" y1="47.33" x2="61.67" y2="51.52"/>
	<path class="st0" d="M65.14,82.88h-20.6c-1.26,0-2.27-1.02-2.27-2.27V79c0-1.26,1.02-2.27,2.27-2.27h20.6
		c1.26,0,2.27,1.02,2.27,2.27v1.61C67.41,81.86,66.4,82.88,65.14,82.88z"/>
</g>
</svg>
