<?xml version="1.0" encoding="utf-8"?>
<!-- Generator: Adobe Illustrator 24.3.0, SVG Export Plug-In . SVG Version: 6.00 Build 0)  -->
<svg version="1.1" id="Layer_1" xmlns="http://www.w3.org/2000/svg" xmlns:xlink="http://www.w3.org/1999/xlink" x="0px" y="0px"
	 viewBox="0 0 110 110" style="enable-background:new 0 0 110 110;" xml:space="preserve">
<style type="text/css">
	.st0{fill:none;stroke:#000000;stroke-width:2;stroke-miterlimit:10;}
	.st1{fill:#FFFFFF;stroke:#000000;stroke-width:2;stroke-miterlimit:10;}
	.st2{fill:none;stroke:#000000;stroke-width:2;stroke-linejoin:round;stroke-miterlimit:10;}
	.st3{fill:#15AD60;stroke:#000000;stroke-width:2;stroke-miterlimit:10;}
</style>
<g>
	<path class="st0" d="M46.1,42.8h-2.7c-1.69,0-3.05-1.37-3.05-3.05V25.47c0-1.69,1.37-3.05,3.05-3.05h2.7
		c1.69,0,3.05,1.37,3.05,3.05l0,14.27C49.16,41.43,47.79,42.8,46.1,42.8z"/>
	<path class="st0" d="M54.91,42.8h-2.7c-1.69,0-3.05-1.37-3.05-3.05V25.47c0-1.69,1.37-3.05,3.05-3.05h2.7
		c1.69,0,3.05,1.37,3.05,3.05v14.27C57.96,41.43,56.6,42.8,54.91,42.8z"/>
	<path class="st0" d="M63.72,42.8h-2.7c-1.69,0-3.05-1.37-3.05-3.05V25.47c0-1.69,1.37-3.05,3.05-3.05h2.7
		c1.69,0,3.05,1.37,3.05,3.05v14.27C66.77,41.43,65.4,42.8,63.72,42.8z"/>
	<path class="st0" d="M72.52,42.8h-2.7c-1.69,0-3.05-1.37-3.05-3.05V25.47c0-1.69,1.37-3.05,3.05-3.05h2.7
		c1.69,0,3.05,1.37,3.05,3.05v14.27C75.57,41.43,74.21,42.8,72.52,42.8z"/>
	<path class="st1" d="M78.34,34.09H66.77c-2.43,0-4.4,1.97-4.4,4.4v0c0,2.43,1.97,4.4,4.4,4.4h7.17v7.17c0,2.43,1.97,4.4,4.4,4.4
		c2.43,0,4.4-1.97,4.4-4.4V38.5v0C82.74,36.07,80.77,34.09,78.34,34.09z"/>
	<polyline class="st2" points="81.23,53.4 71.17,67.88 71.17,97.9 44.75,97.9 44.75,68.02 40.35,63.17 40.35,38.39 	"/>
	<path class="st0" d="M73.75,48.04c-5.55,0-10.05,4.5-10.05,10.05v4"/>
	<polygon class="st3" points="26.98,73.9 32.28,73.9 27.73,67.51 23.17,61.13 18.61,67.51 14.05,73.9 19.36,73.9 19.36,93.41 
		26.94,93.41 	"/>
	<polygon class="st3" points="26.98,26.66 32.28,26.66 27.73,19.38 23.17,12.1 18.61,19.38 14.05,26.66 19.36,26.66 19.36,48.9 
		26.94,48.9 	"/>
	<polygon class="st3" points="90.65,75.67 95.95,75.67 91.39,68.4 86.83,61.13 82.27,68.4 77.72,75.67 83.02,75.67 83.02,97.9 
		90.61,97.9 	"/>
</g>
</svg>
